<?xml version="1.0" encoding="UTF-8"?>
<svg id="Capa_1" data-name="Capa 1" xmlns="http://www.w3.org/2000/svg" viewBox="0 0 130 146">
  <defs>
    <style>
      .cls-1 {
        fill: #fff;
      }

      .cls-2 {
        fill: #021d49;
      }
    </style>
  </defs>
  <rect class="cls-2" width="130" height="146" rx="10" ry="10"/>
  <g>
    <path class="cls-1" d="M92.438,70.861v-.034l-6.305-.012-11.873-.023v.119l.009,.033,1.099,4.065,1.195,4.42h3.23v12.574c0,3.79-1.506,7.426-4.186,10.106l-.047,.047c-2.68-2.68-4.186-6.315-4.186-10.106v-9.21c-1.138,2.139-2.581,4.089-4.31,5.818l-1.586,1.586-4.763,4.763-.791,.791v.003c1.073,2.96,2.786,5.681,5.055,7.95l10.582,10.408,10.582-10.408c4.065-4.065,6.349-9.579,6.349-15.328v-.174l-.041-13.24-.013-4.149Z"/>
    <path class="cls-1" d="M96.613,48.802h-22.354v8.639h5.534v5.459h12.698v-7.817c0-.679,.105-1.351,.303-1.992,.593-1.926,2.02-3.573,3.93-4.29h-.111Z"/>
    <path class="cls-1" d="M71.371,71.287V37.441c.195-2.511,1.827-4.706,4.213-5.601H33.276c2.387,.895,4.018,3.09,4.213,5.601v33.846c0,5.749,2.284,11.263,6.349,15.328l6.17,6.17,.179,.179v-.02l.02,.02v-30.671h8.446v30.671l.02-.02v.02l.364-.364,5.985-5.985c4.065-4.065,6.349-9.579,6.349-15.328Zm-12.718-22.485v5.026h-8.446v-13.522h8.446v8.496Z"/>
  </g>
</svg>